<svg width="1480" height="714" viewBox="0 0 1480 714" fill="none" xmlns="http://www.w3.org/2000/svg">
<g opacity="0.3" clip-path="url(#clip0_156_410)">
<rect width="1480" height="720" transform="translate(0 -3)" fill="#011D0C" fill-opacity="0.5"/>
<path d="M-282.022 -174.33C-202.801 -176.08 -123.518 -164.48 -46.1061 -149.07C32.8786 -133.34 110.836 -112.76 187.796 -89.44C253.244 -69.61 318.046 -47.73 382.025 -23.78C423.393 -8.28998 464.956 13.6 510.333 13.97C571.465 14.47 616.451 -32.01 669.34 -54.77C710.092 -72.31 752.775 -77.21 796.959 -77.52C868.76 -78.03 940.036 -71.51 1011.23 -62.81C1100.39 -51.91 1189.13 -38 1278.02 -25.32C1367.4 -12.57 1457.3 0.0800171 1547.64 3.83002C1567.03 4.64002 1586.44 4.92001 1605.85 4.48001" stroke="url(#paint0_linear_156_410)" stroke-opacity="0.15" stroke-miterlimit="10"/>
<path d="M-266.873 -168.17C-187.138 -169.41 -107.485 -155.64 -30.0831 -138.16C48.7577 -120.36 126.376 -97.61 203.12 -72.69C268.856 -51.34 333.976 -28.22 398.778 -4.31998C440.218 10.97 482.459 31.33 527.856 30.1C589.965 28.42 634.714 -19.89 688.231 -43.98C728.818 -62.25 771.912 -68.05 816.282 -68.28C887.352 -68.64 957.93 -60.62 1028.15 -50.56C1115.89 -37.98 1203.09 -22.13 1290.51 -7.62997C1377.82 6.86003 1465.74 21.18 1554.29 25.98C1573.56 27.02 1592.84 27.5 1612.14 27.18" stroke="url(#paint1_linear_156_410)" stroke-opacity="0.15" stroke-miterlimit="10"/>
<path d="M-251.343 -162.15C-171.546 -162.82 -92.0375 -146.99 -15.1289 -127.61C64.2875 -107.6 142.275 -82.46 219.513 -55.65C285.136 -32.87 350.195 -8.61003 415.448 15.13C457.33 30.37 500.61 49.39 546.387 46.36C609.503 42.2 654.078 -8.20003 708.437 -33.56C748.757 -52.37 792.18 -58.98 836.601 -59.11C907.065 -59.33 977.16 -49.59 1046.48 -38.08C1131.59 -23.95 1216.06 -6.38002 1300.77 9.78998C1386.76 26.2 1473.48 42.46 1561.04 48.39C1580.2 49.69 1599.38 50.36 1618.58 50.19" stroke="url(#paint2_linear_156_410)" stroke-opacity="0.15" stroke-miterlimit="10"/>
<path d="M-235.567 -156.21C-155.174 -156.29 -75.3053 -138.16 1.55194 -116.7C80.8142 -94.57 158.452 -67.25 235.515 -38.79C301.396 -14.45 366.804 11.13 432.91 34.88C474.987 49.99 518.833 67.36 564.62 62.76C628.723 56.32 673.03 4.1 728.098 -22.73C768.634 -42.48 812.972 -50 858.051 -49.98C926.675 -49.96 995.105 -38.74 1062.27 -26.05C1146.52 -10.13 1229.95 9.59 1313.71 27.75C1397.55 45.94 1482.24 63.92 1567.99 70.94C1586.99 72.5 1606.04 73.38 1625.11 73.35" stroke="url(#paint3_linear_156_410)" stroke-opacity="0.15" stroke-miterlimit="10"/>
<path d="M-219.698 -150.3C-139.192 -149.78 -59.4775 -129.54 16.8556 -106.2C96.6831 -81.8 174.691 -52.06 252.268 -21.66C317.994 4.09001 383.371 30.85 449.941 54.49C492.593 69.63 537.384 85.53 583.541 79.14C614.663 74.83 641.631 59.83 666.699 42.12C693.544 23.16 719.136 2.60002 748.736 -12.31C788.953 -32.57 833.713 -41.04 878.812 -40.86C946.82 -40.58 1014.76 -27.67 1080.92 -13.51C1163.21 4.10002 1244.53 25.72 1326.22 45.68C1408.6 65.8 1491.98 85.73 1576.7 93.72C1594.99 95.45 1613.32 96.47 1631.7 96.59" stroke="url(#paint4_linear_156_410)" stroke-opacity="0.15" stroke-miterlimit="10"/>
<path d="M-203.88 -144.38C-122.727 -143.25 -42.6425 -120.65 33.5878 -95.26C113.241 -68.74 190.889 -36.87 268.312 -4.81C334.254 22.49 400.001 50.62 467.454 74.25C510.405 89.3 555.678 103.48 601.826 95.58C633.604 90.14 660.913 73.9 686.258 55.21C713.288 35.27 739.126 13.81 769.189 -1.84C808.964 -22.54 854.022 -32.04 899.018 -31.72C965.69 -31.24 1032.38 -16.93 1096.82 -1.53999C1177.6 17.75 1257.19 41.37 1337.24 63.23C1418.07 85.3 1500.04 107.19 1583.67 116.33C1601.81 118.31 1620 119.54 1638.26 119.8" stroke="url(#paint5_linear_156_410)" stroke-opacity="0.15" stroke-miterlimit="10"/>
<path d="M-188.258 -138.38C-106.426 -136.65 -25.9925 -111.66 50.1247 -84.25C129.572 -55.64 206.861 -21.69 284.139 11.99C350.277 40.82 416.404 70.33 484.751 93.94C528.288 108.98 574.302 121.46 620.634 111.81C687.439 97.9 730.997 40.18 788.645 9.02C828.173 -12.35 873.776 -22.98 918.967 -22.57C984.889 -21.97 1051.02 -5.98 1114.23 10.78C1192.94 31.65 1270.27 57.07 1348.14 80.66C1427.4 104.68 1507.97 128.54 1590.55 138.8C1608.53 141.04 1626.6 142.46 1644.73 142.85" stroke="url(#paint6_linear_156_410)" stroke-opacity="0.15" stroke-miterlimit="10"/>
<path d="M-172.985 -132.27C-90.9892 -129.99 -10.73 -102.9 64.8014 -73.77C145.389 -42.7 223.552 -6.07001 301.961 29.77C367.307 59.64 432.9 90.01 501.124 113.27C545.144 128.28 591.692 139.13 638.106 128.11C706.176 111.95 749.682 52.09 808.553 19.39C847.763 -2.39002 893.756 -13.94 938.957 -13.36C969.123 -12.97 999.442 -8.24001 1028.95 -2.48001C1063.25 4.21999 1097.07 13.09 1130.57 22.86C1207.98 45.45 1283.77 72.89 1360.19 98.37C1437.42 124.12 1516.11 149.72 1597.19 161.02C1615.06 163.51 1633.03 165.13 1651.07 165.65" stroke="url(#paint7_linear_156_410)" stroke-opacity="0.15" stroke-miterlimit="10"/>
<path d="M-158.196 -126C-76.2919 -123.23 3.5253 -94.26 78.2345 -63.62C159.162 -30.43 237.448 8.43999 316.237 46.09C381.717 77.38 447.669 109.06 516.715 132.3C542.502 140.98 568.207 148.07 595.556 149.67C615.916 150.86 636.472 149.31 656.154 143.94C724.47 125.3 767.565 64.38 826.837 30.31C866.057 7.76 912.965 -4.95 958.65 -4.07C988.579 -3.49 1018.68 1.68001 1047.83 7.96001C1081.65 15.24 1114.92 24.8 1147.82 35.31C1223.78 59.59 1297.88 88.97 1372.71 116.24C1447.71 143.57 1524.35 170.72 1603.76 182.93C1621.46 185.65 1639.3 187.45 1657.22 188.09" stroke="url(#paint8_linear_156_410)" stroke-opacity="0.15" stroke-miterlimit="10"/>
<path d="M-144.064 -119.5C-61.4611 -116.28 18.685 -84.98 93.2195 -52.52C173.9 -17.39 251.806 23.4 330.451 62.57C396.044 95.23 462.418 128.26 532.358 151.32C558.464 159.93 584.333 166.44 612.001 167.25C632.412 167.84 652.916 165.66 672.465 159.79C741.799 138.98 784.811 76.23 845.173 40.71C884.115 17.8 930.992 4.54 976.656 5.28C1006.34 5.76 1036.37 11.54 1065.13 18.25C1098.53 26.05 1131.3 36.26 1163.63 47.49C1237.69 73.2 1309.67 104.22 1382.45 133.06C1455.97 162.19 1531.32 191.21 1609.89 204.38C1627.49 207.33 1645.22 209.29 1663.06 210.03" stroke="url(#paint9_linear_156_410)" stroke-opacity="0.15" stroke-miterlimit="10"/>
<path d="M-130.702 -112.74C-47.4114 -109.15 33.0739 -75.55 107.423 -41.35C188.433 -4.08999 266.482 38.88 345.59 79.75C410.721 113.4 476.961 147.35 547.168 169.96C573.603 178.47 599.647 184.39 627.613 184.43C648.045 184.46 668.487 181.67 687.892 175.35C758.171 152.46 801.153 87.97 862.573 51.06C901.166 27.87 948.115 13.99 993.686 14.74C1023.18 15.23 1053.1 21.4 1081.55 28.54C1114.56 36.82 1146.86 47.67 1178.66 59.57C1250.92 86.63 1320.84 119.19 1391.67 149.52C1463.75 180.39 1537.87 211.22 1615.69 225.28C1633.18 228.44 1650.84 230.55 1668.61 231.36" stroke="url(#paint10_linear_156_410)" stroke-opacity="0.15" stroke-miterlimit="10"/>
<path d="M-118.287 -105.66C-78.4914 -103.83 -39.59 -94.18 -2.06583 -81.55C39.9292 -67.41 80.5058 -49.48 120.271 -30.26C200.9 8.69997 278.446 53.33 357.297 95.51C422.489 130.38 489.099 165.57 560.129 187.94C574.332 192.41 589.019 196.88 603.789 199.2C616.101 201.13 628.949 201.46 641.405 201.18C662.464 200.71 683.421 197.28 703.226 190.23C773.526 165.21 816.138 99.98 877.866 61.93C916.582 38.07 964.189 23.38 1010.3 24.34C1039.17 24.94 1068.47 31.3 1096.2 38.67C1128.8 47.33 1160.59 58.72 1191.82 71.22C1262.83 99.65 1331.2 133.88 1400.58 165.79C1471.18 198.26 1544.05 230.77 1621.1 245.58C1638.49 248.92 1656.07 251.15 1673.78 252.01" stroke="url(#paint11_linear_156_410)" stroke-opacity="0.15" stroke-miterlimit="10"/>
<path d="M-106.961 -98.21C-66.9289 -96.32 -27.8939 -86.1 9.63028 -72.85C51.1833 -58.17 91.2359 -39.64 130.466 -19.87C211.476 20.96 289.186 67.6 368.51 111.37C433.743 147.37 500.805 183.75 572.688 205.67C586.964 210.02 601.877 214.41 616.749 216.36C629.206 217.99 642.186 217.99 654.725 217.4C675.764 216.42 696.648 212.47 716.31 205.04C787.422 178.17 829.992 111.44 892.718 72.21C931.167 48.16 978.67 33.15 1024.67 34.07C1053.94 34.65 1083.65 41.44 1111.63 49.36C1143.44 58.37 1174.38 70.14 1204.71 83.06C1274.7 112.88 1341.72 148.79 1409.91 182.22C1478.71 215.95 1549.98 249.75 1625.88 265.11C1643.23 268.62 1660.77 270.94 1678.46 271.83" stroke="url(#paint12_linear_156_410)" stroke-opacity="0.15" stroke-miterlimit="10"/>
<path d="M-96.8578 -90.35C-56.6819 -88.46 -17.5544 -77.78 19.8875 -63.97C61.5947 -48.58 101.688 -29.25 140.908 -8.65997C222.082 33.96 299.813 82.41 379.476 127.58C444.164 164.25 511.052 201.34 583.079 222.62C597.499 226.88 612.514 230.98 627.52 232.72C640.141 234.18 653.245 233.93 665.907 233.09C687.552 231.65 708.93 227.1 728.992 219C800.217 190.26 842.624 122.65 905.894 82.53C944.343 58.15 992.073 42.93 1038.28 43.99C1067.04 44.66 1096.17 51.44 1123.57 59.51C1155.07 68.79 1185.6 81 1215.47 94.41C1284.42 125.39 1350.08 162.78 1417.01 197.59C1484.52 232.71 1554.78 267.98 1630.16 283.84C1647.46 287.48 1664.98 289.86 1682.66 290.74" stroke="url(#paint13_linear_156_410)" stroke-opacity="0.15" stroke-miterlimit="10"/>
<path d="M-88.1319 -82.02C-47.8842 -80.22 -8.75666 -69.15 28.5722 -54.89C70.3617 -38.93 110.414 -18.87 149.562 2.42998C230.788 46.62 308.405 96.71 388.284 143.11C452.788 180.58 519.932 218.56 592.524 239.11C607.036 243.22 622.155 247.04 637.233 248.47C649.977 249.68 663.163 249.2 675.898 248.11C697.769 246.23 719.301 241.2 739.455 232.68C811.03 202.4 853.323 133.84 917.24 92.87C955.689 68.23 1003.31 53.05 1049.64 54.08C1078.34 54.72 1107.38 61.55 1134.65 69.88C1165.87 79.41 1196.04 92.01 1225.46 105.88C1293.41 137.9 1357.73 176.61 1423.45 212.63C1489.72 248.95 1558.98 285.49 1633.84 301.65C1651.1 305.38 1668.61 307.77 1686.29 308.6" stroke="url(#paint14_linear_156_410)" stroke-opacity="0.15" stroke-miterlimit="10"/>
<path d="M-80.9375 -73.17C-41.2344 -71.56 -2.69278 -60.47 34.0092 -46.18C76.6106 -29.58 117.29 -8.49999 156.993 13.81C238.342 59.52 315.939 111.19 396.136 158.73C460.455 196.85 527.918 235.64 601.106 255.13C628.507 262.43 655.506 265.33 683.801 262.44C705.611 260.22 727.04 254.91 747.092 246.22C819.56 214.79 861.925 144.91 926.788 103.05C965.042 78.36 1012.03 63.61 1058.19 64.33C1087.39 64.78 1116.93 71.74 1144.55 80.45C1175.61 90.25 1205.53 103.23 1234.64 117.55C1301.82 150.59 1365.06 190.61 1429.86 227.74C1494.65 264.86 1562.66 302.18 1636.67 318.39C1653.98 322.18 1671.54 324.55 1689.26 325.3" stroke="url(#paint15_linear_156_410)" stroke-opacity="0.15" stroke-miterlimit="10"/>
<path d="M-75.4183 -63.75C-35.6844 -62.4 2.84694 -51.09 39.4153 -36.49C82.0783 -19.46 122.706 2.21 162.307 25.09C243.655 72.09 321.109 125.12 401.501 173.62C465.583 212.28 533.334 251.76 607.006 270.18C634.55 277.06 661.909 279.29 690.173 275.98C712.168 273.41 733.71 267.74 753.844 258.71C826.477 226.14 868.739 155.64 934.106 113.29C972.473 88.43 1019.09 74.27 1065.36 74.87C1127.04 75.67 1187.55 101.37 1241.25 128.67C1307.7 162.46 1369.89 203.52 1433.77 241.57C1497.63 279.6 1564.99 317.89 1638.77 334.04C1656.14 337.84 1673.76 340.14 1691.55 340.76" stroke="url(#paint16_linear_156_410)" stroke-opacity="0.15" stroke-miterlimit="10"/>
<path d="M-71.7183 -53.72C-31.9844 -52.72 6.53667 -41.27 42.9714 -26.46C85.6858 -9.09997 126.242 13.08 165.739 36.46C247.068 84.59 324.356 138.82 404.914 188.12C468.739 227.18 536.788 267.24 610.901 284.4C660.018 295.77 712.661 291.62 758.5 270.51C831.205 237.03 873.354 166.08 939.153 123.46C977.705 98.48 1023.8 85.21 1070.17 85.65C1132.15 86.25 1192.25 111.58 1245.94 139.57C1311.85 173.92 1373.14 215.89 1436.26 254.7C1499.37 293.5 1566.27 332.57 1639.97 348.46C1657.45 352.23 1675.19 354.4 1693.08 354.85" stroke="url(#paint17_linear_156_410)" stroke-opacity="0.15" stroke-miterlimit="10"/>
<path d="M-69.9814 -43.01C-29.6822 -42.47 9.41444 -30.65 46.1986 -15.34C88.1936 2.12999 127.999 24.32 166.757 47.71C247.941 96.7 324.942 151.89 405.53 201.78C440.66 223.53 476.498 244.41 513.909 262.28C545.123 277.19 577.724 290.27 611.785 297.55C661.755 308.24 715.847 303.02 761.964 281.05C833.99 246.74 875.841 176.09 941.609 133.63C980.716 108.39 1026.44 96.32 1073.28 96.7C1135.1 97.21 1194.33 121.54 1247.79 149.81C1313.2 184.4 1373.7 226.98 1436.07 266.32C1499.01 306.02 1566.06 346.05 1640.3 361.54C1657.92 365.22 1675.79 367.21 1693.81 367.43" stroke="url(#paint18_linear_156_410)" stroke-opacity="0.15" stroke-miterlimit="10"/>
<path d="M-70.1253 -31.97C-29.7336 -31.71 9.46585 -19.96 46.3014 -4.59997C88.2861 12.9 128.02 35.23 166.685 58.78C247.674 108.1 324.367 163.73 404.801 213.86C439.858 235.71 475.645 256.65 513.067 274.46C544.311 289.34 576.995 302.31 611.137 309.29C661.036 319.5 714.809 313.82 760.7 291.87C833.158 257.22 876.582 187.03 943.12 144.57C982.165 119.65 1027.17 107.74 1073.77 107.94C1135.91 108.2 1195.19 132.15 1248.87 160.73C1313.98 195.4 1373.97 238.29 1435.93 277.85C1498.59 317.86 1565.51 358.07 1639.81 373.23C1657.6 376.86 1675.64 378.76 1693.82 378.85" stroke="url(#paint19_linear_156_410)" stroke-opacity="0.15" stroke-miterlimit="10"/>
<path d="M-71.3894 -21.74C-30.9567 -21.61 8.27362 -9.95999 45.1606 5.41001C87.0117 22.84 126.571 45.22 165.03 68.79C245.567 118.17 321.694 173.95 401.635 224.21C437.021 246.45 473.179 267.78 511.042 285.8C542.214 300.63 574.836 313.52 608.928 320.34C658.343 330.23 711.027 324.3 756.527 302.94C830.486 268.21 876.962 198.54 945.165 155.96C984.149 131.62 1028.61 119.16 1074.94 119.19C1137.62 119.22 1197.29 143.21 1251.31 172.27C1315.86 207 1375.19 250.02 1436.55 289.65C1498.76 329.82 1565.3 370.01 1639.36 384.99C1657.24 388.61 1675.38 390.46 1693.64 390.52" stroke="url(#paint20_linear_156_410)" stroke-opacity="0.15" stroke-miterlimit="10"/>
<path d="M-73.6608 -12.34C-33.228 -12.3 5.9714 -0.729965 42.8378 14.68C85.1719 32.38 125.111 55.22 163.9 79.29C243.183 128.5 318.108 183.98 396.825 234.02C431.985 256.37 467.937 277.78 505.615 295.89C537.148 311.05 570.211 324.17 604.786 330.98C654.211 340.71 706.351 334.27 751.891 313.27C827.423 278.45 877.496 209.69 947.632 167.21C986.852 143.46 1031.12 130.54 1077.41 130.38C1140.48 130.16 1200.48 154.3 1254.65 183.85C1318.51 218.68 1377.03 261.86 1437.65 301.58C1499.24 341.94 1565.23 382.14 1638.94 396.98C1656.87 400.59 1675.06 402.41 1693.38 402.44" stroke="url(#paint21_linear_156_410)" stroke-opacity="0.15" stroke-miterlimit="10"/>
<path d="M-76.8469 -3.71002C-36.4861 -3.74002 2.65167 7.77997 39.4358 23.25C81.5233 40.95 121.185 63.85 159.655 88.01C238.866 137.74 313.554 193.91 392.21 244.44C427.052 266.82 462.695 288.25 500.117 306.33C531.032 321.27 563.469 334.17 597.396 340.95C647.428 350.95 699.773 344.08 746.023 323.32C823.661 288.47 877.825 220.62 950.468 178.32C990.613 154.94 1035.49 141.59 1082.45 141.52C1144.8 141.43 1204.02 165.23 1257.45 194.71C1320.51 229.51 1378.05 272.8 1437.72 312.66C1498.96 353.58 1564.73 394.33 1638.52 409.18C1656.48 412.79 1674.68 414.59 1693.01 414.6" stroke="url(#paint22_linear_156_410)" stroke-opacity="0.15" stroke-miterlimit="10"/>
<path d="M-80.8861 4.20995C-40.6897 4.14995 -1.72666 15.6 34.8519 31.11C76.59 48.8 115.861 71.73 153.91 95.92C232.874 146.13 307.131 202.93 385.499 253.98C419.94 276.41 455.213 297.89 492.285 315.99C523.406 331.19 556.11 344.29 590.366 351C640.182 360.76 692.034 353.39 738.273 333.44C819.118 298.57 878.144 231.13 954.353 188.94C994.93 166.47 1039.79 152.95 1086.7 152.66C1149.14 152.27 1208.34 176.08 1261.59 205.96C1324.14 241.06 1380.94 284.85 1439.98 325.09C1500.23 366.15 1565.09 406.89 1638.16 421.63C1656.07 425.24 1674.22 427.02 1692.5 427.01" stroke="url(#paint23_linear_156_410)" stroke-opacity="0.15" stroke-miterlimit="10"/>
<path d="M-85.6961 11.5C-45.0372 11.41 -5.67333 23.2 31.1828 39.16C71.8622 56.76 110.116 79.41 147.157 103.31C225.217 153.67 298.456 210.68 375.838 262C410.381 284.91 445.788 306.84 483.086 325.31C513.92 340.57 546.397 353.73 580.417 360.45C630.963 370.44 683.328 362.51 730.431 342.93C814.206 308.11 878.164 241.84 957.694 199.95C999.565 177.9 1045.49 163.99 1093.37 163.76C1155.85 163.47 1214.82 187.55 1267.76 218C1329.17 253.32 1384.71 297.28 1442.59 337.63C1501.71 378.85 1565.55 419.6 1637.83 434.27C1655.65 437.89 1673.73 439.65 1691.93 439.64" stroke="url(#paint24_linear_156_410)" stroke-opacity="0.15" stroke-miterlimit="10"/>
<path d="M-91.1947 18.21C-50.8442 18.12 -11.8195 29.86 24.6975 45.84C65.5517 63.72 103.867 86.81 140.919 111.17C218.362 162.08 290.882 219.68 367.708 271.43C428.47 312.36 494.854 354.41 568.258 369.45C619.555 379.96 672.763 371.54 720.873 352.5C808.635 317.77 878.174 252.1 962.051 210.45C1005.43 188.9 1052.66 174.82 1101.7 174.81C1163 174.8 1220.75 198.56 1272.46 228.88C1333.07 264.42 1387.54 308.79 1444.42 349.53C1502.62 391.21 1565.67 432.4 1637.51 447.1C1655.19 450.72 1673.14 452.46 1691.22 452.45" stroke="url(#paint25_linear_156_410)" stroke-opacity="0.15" stroke-miterlimit="10"/>
<path d="M-97.31 24.4C-57.2267 24.33 -18.5103 36.07 17.6778 52.12C58.7272 70.33 97.1147 93.95 134.187 118.83C209.934 169.68 280.779 227.03 355.909 278.72C389.456 301.8 423.897 323.92 460.29 342.57C490.887 358.26 523.201 371.74 557.179 378.63C608.886 389.12 662.619 379.96 711.315 361.56C802.849 326.97 877.928 262.52 965.926 221.25C1010.57 200.31 1058.79 186 1108.68 185.82C1169.87 185.6 1227.25 209.43 1278.5 240.2C1337.84 275.82 1390.84 320.35 1446.28 361.25C1503.52 403.48 1565.74 445.24 1637.17 460.03C1654.72 463.67 1672.54 465.41 1690.49 465.4" stroke="url(#paint26_linear_156_410)" stroke-opacity="0.15" stroke-miterlimit="10"/>
<path d="M-103.96 30.15C-64.2361 30.12 -25.9103 41.84 9.86667 57.93C50.3817 76.16 88.1731 99.81 124.628 124.73C200.304 176.48 270.799 234.96 345.837 287.55C405.469 329.35 471.082 372.5 544.188 387.46C596.348 398.14 650.789 388.45 700.184 370.8C796.137 336.51 877.116 273.06 969.77 232.09C1016.14 211.58 1065.9 197.03 1117.2 196.85C1178.09 196.64 1234.98 220.64 1285.55 251.92C1343.89 288 1395.65 333.02 1450 374.32C1505.73 416.66 1566.55 458.41 1636.86 473.17C1654.24 476.82 1671.89 478.56 1689.66 478.56" stroke="url(#paint27_linear_156_410)" stroke-opacity="0.15" stroke-miterlimit="10"/>
<path d="M-111.072 35.51C-71.7286 35.52 -33.8036 47.24 1.53139 63.39C41.4914 81.65 78.6661 105.35 114.484 130.32C189.481 182.62 259.093 241.78 333.37 295.01C392.015 337.03 456.59 380.41 528.915 395.81C582.421 407.21 638.579 396.82 689.536 379.51C790.145 345.33 877.188 282.89 974.868 242.4C1022.76 222.55 1073.89 207.96 1126.34 207.85C1186.91 207.72 1243.17 231.84 1293.01 263.65C1349.82 299.91 1399.92 345.01 1452.65 386.45C1506.75 428.96 1565.96 470.88 1635.01 486.05C1652.7 489.94 1670.67 491.8 1688.8 491.82" stroke="url(#paint28_linear_156_410)" stroke-opacity="0.15" stroke-miterlimit="10"/>
<path d="M-118.575 40.55C-78.9744 40.62 -40.9261 52.74 -5.57055 69.35C33.7933 87.85 70.3411 111.71 105.512 136.83C179.142 189.42 247.345 248.77 320.266 302.25C378.191 344.74 442.212 388.73 514.259 404.28C568.31 415.95 625.495 405.04 677.244 388.46C783.239 354.5 876.838 292.8 980.161 252.65C1029.67 233.41 1082.27 218.89 1135.96 218.82C1196.16 218.73 1251.74 243.07 1300.77 275.38C1356.04 311.81 1404.41 357.03 1455.48 398.62C1508.27 441.61 1566.34 484.07 1634.71 499.36C1652.17 503.27 1669.95 505.13 1687.87 505.17" stroke="url(#paint29_linear_156_410)" stroke-opacity="0.15" stroke-miterlimit="10"/>
<path d="M-126.376 45.34C-87.1864 45.48 -49.5903 57.61 -14.7178 74.29C24.6769 93.13 61.1117 117.51 96.1178 143.14C168.36 196.04 235.135 255.58 306.679 309.34C363.854 352.3 427.268 396.94 499.017 412.65C553.633 424.61 611.98 413.23 664.53 397.34C775.756 363.72 875.708 303.1 984.447 263.33C1036.01 244.47 1090.53 229.82 1146.01 229.79C1205.32 229.76 1259.82 253.92 1307.67 286.38C1362.28 323.42 1409.51 369.54 1459.67 411.85C1510.77 454.96 1567.28 497.47 1634.43 512.77C1651.67 516.7 1669.22 518.57 1686.92 518.63" stroke="url(#paint30_linear_156_410)" stroke-opacity="0.15" stroke-miterlimit="10"/>
<path d="M-134.413 49.9301C-95.0797 50.1401 -57.4322 62.6401 -22.6419 79.7701C15.4681 98.5301 50.6797 122.58 84.4628 147.86C156.366 201.65 222.483 262.29 293.616 316.99C349.578 360.03 411.779 404.74 482.531 420.74C538.073 433.3 598.013 421.37 651.745 406.05C768.634 372.72 875.194 312.94 989.801 273.6C1043.4 255.2 1099.94 240.53 1157.16 240.74C1215.46 240.95 1268.76 265.1 1315.3 297.71C1368.25 334.81 1413.62 380.93 1461.91 423.35C1511.85 467.23 1567.35 510.72 1634.21 526.24C1651.19 530.18 1668.49 532.06 1685.94 532.13" stroke="url(#paint31_linear_156_410)" stroke-opacity="0.15" stroke-miterlimit="10"/>
<path d="M-142.604 54.4C-103.703 54.69 -66.5178 67.22 -32.2414 84.42C5.87888 103.54 40.9364 128.12 74.5344 153.91C145.019 208.03 209.667 268.87 279.391 323.87C334.552 367.38 396.095 412.76 466.519 428.95C494.772 435.45 523.529 434.86 552.215 431.69C581.835 428.42 611.045 422.22 639.74 414.45C761.676 381.44 874.3 323.02 994.17 284.22C1049.93 266.17 1108.54 251.42 1167.7 251.7C1225.57 251.98 1278.1 276.37 1323.68 309.51C1375.41 347.13 1419.26 393.77 1466.21 436.64C1514.02 480.3 1567.43 523.53 1632.42 539.4C1649.62 543.6 1667.2 545.6 1684.92 545.7" stroke="url(#paint32_linear_156_410)" stroke-opacity="0.15" stroke-miterlimit="10"/>
<path d="M-150.878 58.8C-112.387 59.17 -75.6958 71.73 -41.9231 89C-3.81305 108.49 31.0903 133.59 64.4622 159.9C133.529 214.35 196.717 275.4 265.033 330.69C319.074 374.42 379.476 420.1 449.046 436.81C477.763 443.71 507.013 443.06 536.243 440C566.686 436.81 596.759 430.73 626.348 423.17C754.348 390.47 873.765 332.77 999.863 294.4C1057.39 276.9 1117.67 262.29 1178.33 262.65C1235.77 262.99 1287.5 287.63 1332.1 321.29C1382.23 359.13 1424.24 405.9 1469.44 448.93C1515.79 493.05 1567.85 536.88 1632.12 552.92C1649.07 557.15 1666.41 559.15 1683.89 559.28" stroke="url(#paint33_linear_156_410)" stroke-opacity="0.15" stroke-miterlimit="10"/>
<path d="M-159.141 63.2C-121.124 63.64 -84.9561 76.2 -51.728 93.5C-14.2655 113.01 19.9286 138.13 52.5708 164.45C121.226 219.82 183.695 281.97 251.549 338.23C304.664 382.27 364.316 428.43 433.424 445.12C462.151 452.06 491.463 451.22 520.703 448.28C551.927 445.14 582.801 439.18 613.244 431.82C747.174 399.43 873.2 342.57 1005.39 304.66C1064.97 287.57 1127.27 273.03 1189.77 273.61C1246.18 274.13 1296.76 298.87 1339.95 332.65C1388.83 370.86 1429.24 418.05 1472.96 461.48C1517.75 505.98 1568.44 550.31 1631.91 566.46C1648.59 570.7 1665.67 572.71 1682.89 572.87" stroke="url(#paint34_linear_156_410)" stroke-opacity="0.15" stroke-miterlimit="10"/>
<path d="M-167.332 67.66C-129.12 68.18 -92.9008 81.17 -59.7447 98.95C-22.8989 118.72 10.6272 144.02 42.6014 170.49C109.859 226.18 170.878 288.54 237.334 345.09C289.628 389.59 348.602 436.43 417.401 453.31C446.169 460.37 475.584 459.41 504.886 456.61C537.394 453.5 569.574 447.53 601.343 440.21C740.37 408.17 872.244 352.6 1009.69 315.24C1071.42 298.46 1135.83 283.87 1200.3 284.54C1255.84 285.11 1305.37 309.7 1347.33 343.63C1395.41 382.52 1434.51 430.58 1477.17 474.75C1520.22 519.32 1569.29 563.75 1631.61 579.95C1648.04 584.22 1664.9 586.24 1681.9 586.41" stroke="url(#paint35_linear_156_410)" stroke-opacity="0.15" stroke-miterlimit="10"/>
<path d="M-175.37 72.25C-95.1517 73.51 -25.0881 127.47 32.5189 176.42C98.79 232.72 158.679 295.66 224.189 352.76C275.301 397.31 333.092 444.23 400.936 461.4C430.104 468.78 460.003 467.71 489.767 464.97C522.522 461.96 554.979 456.23 587.067 449.25C732.497 417.61 871.216 362.57 1015.13 325.53C1078.45 309.23 1144.31 294.87 1210.17 295.5C1265.71 296.03 1314.74 321.01 1355.95 355.76C1402 394.61 1439.05 442.27 1479.61 486.25C1521.37 531.54 1569.31 576.99 1631.35 593.43C1647.54 597.72 1664.15 599.73 1680.9 599.93" stroke="url(#paint36_linear_156_410)" stroke-opacity="0.15" stroke-miterlimit="10"/>
<path d="M-183.181 77.04C-103.734 78.43 -34.8314 132.47 21.5936 181.51C86.6416 238.04 145.174 301.19 209.297 358.67C237.704 384.14 267.253 408.71 299.422 429.6C325.949 446.83 354.655 461.81 385.653 469.77C414.842 477.26 444.832 476.08 474.638 473.45C508.647 470.46 542.358 464.73 575.73 457.78C726.063 426.48 870.271 372.67 1019.21 336.17C1084.87 320.08 1153.33 305.37 1221.43 306.47C1276.14 307.35 1324.02 332.54 1363.91 367.52C1408.81 406.89 1444.33 455.07 1483.58 499.48C1523.65 544.82 1570.05 590.36 1631.02 606.83C1646.98 611.14 1663.39 613.16 1679.93 613.38" stroke="url(#paint37_linear_156_410)" stroke-opacity="0.15" stroke-miterlimit="10"/>
<path d="M-190.673 82.08C-111.339 83.59 -43.105 138.45 12.5184 188.04C76.6928 245.24 134.218 309.04 197.559 367.08C246.852 412.26 302.948 460.12 369.764 477.94C399.343 485.83 429.796 484.59 460.074 482.04C495.296 479.07 530.251 473.34 564.867 466.42C720.462 435.34 870.394 382.46 1024.74 346.48C1091.87 330.83 1161.68 316.35 1231.07 317.46C1284.99 318.32 1332.02 343.39 1370.73 378.49C1414.56 418.24 1448.62 466.82 1486.52 511.66C1525.17 557.4 1570.29 603.55 1630.7 620.16C1646.46 624.49 1662.67 626.51 1679.02 626.74" stroke="url(#paint38_linear_156_410)" stroke-opacity="0.15" stroke-miterlimit="10"/>
<path d="M-197.796 87.4399C-118.544 89.0499 -50.9264 144.71 3.92613 194.83C66.8364 252.3 123.056 316.24 185.154 374.52C233.717 420.1 289.237 468.66 355.837 486.58C385.417 494.54 415.901 493.21 446.189 490.75C482.059 487.84 517.661 482.22 552.965 475.48C713.617 444.79 869.017 392.8 1028.49 357.2C1097.46 341.8 1169.09 327.28 1240.22 328.45C1293.87 329.33 1340.25 354.61 1378.08 390.23C1420.51 430.19 1452.94 478.84 1489.29 523.79C1526.59 569.91 1570.47 616.66 1630.37 633.4C1645.95 637.75 1661.97 639.77 1678.16 640.01" stroke="url(#paint39_linear_156_410)" stroke-opacity="0.15" stroke-miterlimit="10"/>
<path d="M-204.446 93.1899C-125.831 94.8599 -59.2411 150.51 -5.39583 200.69C56.8567 258.72 112.182 323.3 173.52 382.21C200.252 407.89 228.167 432.7 258.815 453.91C284.417 471.63 312.373 487.14 342.805 495.4C372.343 503.42 402.858 501.99 433.126 499.62C469.561 496.76 505.749 491.25 541.649 484.67C707.676 454.23 868.781 402.86 1033.7 367.61C1103.84 352.62 1176.58 338.26 1248.75 339.46C1302.18 340.35 1347.99 365.82 1384.97 401.93C1426.39 442.37 1457.44 491.5 1492.63 536.85C1528.44 582.99 1570.98 629.76 1630.02 646.5C1645.43 650.87 1661.3 652.87 1677.32 653.13" stroke="url(#paint40_linear_156_410)" stroke-opacity="0.15" stroke-miterlimit="10"/>
<path d="M-210.561 99.39C-131.915 101.1 -65.86 157.47 -12.6622 208.17C48.8503 266.8 103.302 331.97 163.992 391.38C210.972 437.36 265.054 486.42 330.821 504.46C360.288 512.54 390.833 511 421.039 508.7C457.957 505.88 494.639 500.47 531.053 494.04C702.178 463.81 868.657 413.04 1038.73 378.11C1109.88 363.5 1183.55 349.3 1256.59 350.51C1309.42 351.38 1354.56 376.59 1390.59 412.84C1431.14 453.62 1460.91 503.11 1494.93 548.85C1529.27 595.01 1570.34 642.01 1628.42 659.14C1644.07 663.76 1660.24 665.88 1676.57 666.14" stroke="url(#paint41_linear_156_410)" stroke-opacity="0.15" stroke-miterlimit="10"/>
<path d="M-216.059 106.09C-137.825 107.8 -72.5406 164.2 -20.1445 215.06C40.4739 273.89 93.8772 339.26 153.55 398.97C200.026 445.48 253.748 495.35 319.557 513.62C349.414 521.91 380.442 520.23 411.07 517.91C448.481 515.07 485.656 509.7 522.594 503.36C697.522 473.34 868.133 423.54 1042.08 388.98C1114.28 374.64 1188.89 360.53 1262.9 361.56C1316.21 362.3 1361.22 387.73 1396.9 424.95C1435.99 465.72 1464.26 514.93 1496.8 560.49C1530.07 607.08 1570.16 654.71 1628.05 671.95C1643.6 676.58 1659.68 678.69 1675.91 678.95" stroke="url(#paint42_linear_156_410)" stroke-opacity="0.15" stroke-miterlimit="10"/>
<path d="M-220.859 113.38C-142.378 115.05 -77.3711 172.22 -25.4169 223.67C34.2456 282.74 86.6622 348.25 145.451 408.12C191.198 454.71 244.282 504.76 309.649 523.07C339.424 531.41 370.329 529.73 400.874 527.47C439.169 524.63 477.249 519.22 515.091 512.89C693.411 483.04 867.712 434.16 1045.12 399.93C1084.99 392.24 1125.05 385.25 1165.36 380.06C1199.79 375.63 1234.68 372.17 1269.46 372.65C1321.96 373.38 1366.28 398.39 1401.06 435.41C1439.88 476.73 1467.21 526.78 1499.07 573.04C1531.19 619.69 1570.3 667.39 1627.65 684.58C1643.13 689.22 1659.14 691.31 1675.32 691.56" stroke="url(#paint43_linear_156_410)" stroke-opacity="0.15" stroke-miterlimit="10"/>
<path d="M-224.898 121.3C-146.695 122.87 -82.2839 179.95 -30.9258 231.53C28.3975 291.12 80.2283 357.25 138.627 417.66C183.993 464.59 236.882 515.08 302.403 533.12C331.654 541.18 362.066 539.46 392.056 537.27C430.557 534.46 468.841 529.12 506.9 522.91C688.765 493.24 866.838 445 1047.82 410.95C1088.73 403.25 1129.8 396.24 1171.12 391.04C1205.5 386.71 1240.35 383.24 1275.06 383.75C1300.6 384.13 1325.72 389.92 1348.34 401.57C1370.48 412.97 1389.48 429.27 1406.03 447.43C1443.88 488.99 1470.07 539.13 1500.97 585.47C1532.11 632.19 1570.34 679.89 1627.28 697.01C1642.73 701.65 1658.71 703.71 1674.85 703.95" stroke="url(#paint44_linear_156_410)" stroke-opacity="0.15" stroke-miterlimit="10"/>
<path d="M-228.095 129.93C-150.086 131.36 -86.1689 188.25 -35.2939 239.98C23.382 299.64 74.4317 365.89 132.049 426.48C176.922 473.66 229.256 524.39 294.479 542.9C324.397 551.39 355.519 549.58 386.229 547.29C424.297 544.46 462.161 539.25 499.819 533.23C685.363 503.56 867.29 455.72 1051.99 421.78C1093.19 414.21 1134.54 407.29 1176.15 402.13C1210.34 397.89 1245 394.42 1279.51 394.93C1304.99 395.3 1330.05 401.07 1352.58 412.76C1374.5 424.13 1393.25 440.46 1409.45 458.64C1446.56 500.26 1471.79 550.39 1501.74 596.78C1532.17 643.93 1569.82 692.14 1626.85 709.26C1642.3 713.9 1658.28 715.92 1674.41 716.14" stroke="url(#paint45_linear_156_410)" stroke-opacity="0.15" stroke-miterlimit="10"/>
<path d="M-230.366 139.33C-152.368 140.56 -88.7384 197.35 -38.1717 249.3C20.4014 309.48 71.0811 376.37 128.606 437.45C173.067 484.66 225.114 535.36 290.214 553.54C319.567 561.74 350.04 559.99 380.144 557.76C419.354 554.86 458.358 549.47 497.146 543.31C684.243 513.58 867.969 466.69 1054.29 433C1095.77 425.5 1137.37 418.62 1179.22 413.43C1213.25 409.22 1247.71 405.72 1282.06 406.11C1307.59 406.4 1332.76 411.99 1355.36 423.69C1377.18 434.98 1395.8 451.24 1411.81 469.43C1448.42 511.04 1472.85 561.22 1501.99 607.69C1531.88 655.35 1569.11 704.12 1626.42 721.24C1641.92 725.87 1657.97 727.86 1674.16 728.05" stroke="url(#paint46_linear_156_410)" stroke-opacity="0.15" stroke-miterlimit="10"/>
<path d="M-231.63 149.57C-152.954 150.56 -89.1083 207.94 -38.4697 260.57C19.5689 320.89 69.6833 387.87 126.807 448.97C170.981 496.21 222.843 546.77 287.891 564.61C317.08 572.62 347.409 570.76 377.308 568.48C415.829 565.55 454.144 560.26 492.275 554.26C681.561 524.48 867.619 478.06 1056.15 444.35C1097.75 436.91 1139.48 430.05 1181.42 424.82C1215.49 420.58 1250.06 416.91 1284.46 417.35C1310.04 417.67 1335.28 423.29 1357.9 435.08C1379.63 446.41 1398.1 462.73 1413.91 480.98C1450.05 522.69 1473.79 572.97 1502.4 619.49C1531.79 667.31 1568.65 716.02 1625.94 732.98C1641.55 737.6 1657.7 739.54 1673.98 739.69" stroke="url(#paint47_linear_156_410)" stroke-opacity="0.15" stroke-miterlimit="10"/>
<path d="M-231.877 160.65C-152.851 161.32 -88.9645 218.47 -38.3053 271.5C19.4147 331.92 69.0461 399.1 125.841 460.32C169.851 507.76 221.702 558.37 286.904 575.97C316.134 583.86 346.484 581.95 376.383 579.62C414.842 576.63 453.096 571.33 491.165 565.35C680.934 535.52 867.588 489.46 1056.62 455.79C1098.23 448.38 1139.97 441.52 1181.93 436.27C1215.81 432.03 1250.27 428.19 1284.49 428.69C1309.99 429.06 1335.17 434.82 1357.67 446.61C1379.37 457.97 1397.84 474.28 1413.68 492.51C1449.86 534.14 1473.77 584.29 1502.51 630.71C1532.03 678.41 1568.92 727.03 1626.1 744.14C1641.64 748.79 1657.72 750.78 1673.94 751" stroke="url(#paint48_linear_156_410)" stroke-opacity="0.15" stroke-miterlimit="10"/>
<path d="M-231.877 172.09C-152.954 172.45 -89.4578 228.63 -39.0761 281.86C18.2533 342.44 67.1036 410 123.313 471.52C167.045 519.39 218.752 570.34 284.17 587.88C313.811 595.83 344.614 593.86 374.923 591.53C414.112 588.51 453.096 583.11 491.894 576.98C679.711 547.3 864.361 501.32 1051.46 467.88C1093.01 460.45 1134.7 453.6 1176.6 448.38C1210.37 444.17 1244.94 440.09 1279.05 440.79C1330.65 441.85 1374.28 467.8 1407.69 504.69C1444.92 545.82 1470.84 595.22 1501.14 641.08C1532.12 687.96 1570 736.15 1626.77 753.91C1641.89 758.64 1657.55 760.88 1673.4 761.33" stroke="url(#paint49_linear_156_410)" stroke-opacity="0.15" stroke-miterlimit="10"/>
<path d="M-231.877 183.7C-152.615 183.83 -89.3756 239.97 -39.3125 293.85C16.8864 354.34 64.4931 421.77 119.5 483.24C162.728 531.54 214.086 582.88 279.556 600.47C309.926 608.63 341.644 606.47 372.693 604.04C410.792 601.07 448.687 595.86 486.406 589.92C672.917 560.51 856.129 514.22 1041.87 480.84C1083.22 473.41 1124.71 466.58 1166.41 461.39C1200.27 457.18 1235.27 452.75 1269.47 453.84C1320.73 455.48 1364.39 482.35 1398.43 518.03C1437.1 558.55 1465.45 607.13 1497.89 652.22C1530.74 697.87 1570.03 744.75 1626.4 762.79C1641.24 767.54 1656.61 769.96 1672.2 770.6" stroke="url(#paint50_linear_156_410)" stroke-opacity="0.15" stroke-miterlimit="10"/>
<path d="M-231.877 195.47C-152.43 195.44 -89.6839 251.65 -40.1861 306.16C15.0775 367.02 61.4817 434.86 115.584 496.65C158.113 545.22 208.999 596.77 274.406 614C304.572 621.95 336.135 619.73 366.937 617.34C405.479 614.35 443.825 609.07 481.976 603C665.414 573.81 845.512 527.68 1028.2 494.6C1068.67 487.27 1109.29 480.55 1150.12 475.42C1184.49 471.11 1220.28 466.31 1255.01 467.74C1305.77 469.82 1349.78 496.82 1384.79 530.9C1425.42 570.46 1456.68 617.98 1491.61 662.12C1526.98 706.8 1568.34 752.62 1625.1 770.84C1639.8 775.56 1655.02 778.1 1670.46 778.88" stroke="url(#paint51_linear_156_410)" stroke-opacity="0.15" stroke-miterlimit="10"/>
<path d="M-231.877 207.38C-152.389 207.24 -90.3417 263.64 -41.625 318.78C12.5183 380.07 57.5453 448.34 110.568 510.51C152.224 559.36 202.462 611.17 267.685 628.1C297.531 635.85 328.827 633.61 359.28 631.26C397.565 628.31 435.634 623.06 473.518 617C653.399 588.19 829.859 542.26 1008.94 509.42C1049.56 501.97 1090.32 495.16 1131.32 490.01C1149.27 487.75 1167.28 485.82 1185.33 484.43C1201.7 483.17 1218.5 481.7 1234.95 482.36C1286.3 484.42 1331.76 511.81 1368.54 544.84C1411.47 583.41 1446.01 629.76 1483.94 672.77C1522.08 716.02 1565.73 760.07 1622.91 778.12C1637.6 782.76 1652.76 785.37 1668.17 786.25" stroke="url(#paint52_linear_156_410)" stroke-opacity="0.15" stroke-miterlimit="10"/>
<path d="M-231.877 219.43C-152.327 219.24 -91.1228 276.09 -43.3928 331.93C9.15749 393.4 52.4681 461.7 103.898 524.01C144.321 572.98 193.346 625.02 257.818 642.26C288.117 650.36 319.947 648.05 350.914 645.65C388.921 642.7 426.733 637.45 464.34 631.35C640.46 602.79 813.085 557.02 988.424 524.5C1027.97 517.17 1067.68 510.48 1107.61 505.41C1141.54 501.1 1176.89 496.38 1211.19 497.69C1262.7 499.65 1309.52 526.59 1348.03 557.96C1393.8 595.24 1432.07 640.25 1473.29 682.02C1514.82 724.11 1561.41 766.8 1619.89 784.66C1634.69 789.18 1649.93 791.82 1665.4 792.77" stroke="url(#paint53_linear_156_410)" stroke-opacity="0.15" stroke-miterlimit="10"/>
<path d="M-231.877 231.6C-152.985 231.4 -93.1167 287.99 -46.7331 344.02C4.60444 406.04 46.2808 474.94 96.3439 537.89C135.636 587.3 183.664 639.9 247.838 657.23C278.096 665.4 310.029 662.99 340.965 660.57C378.037 657.66 414.904 652.53 451.564 646.53C624.118 618.3 793.044 572.48 964.775 540.22C1003.69 532.91 1042.76 526.27 1082.06 521.27C1115.4 517.03 1150.07 512.49 1183.77 513.68C1236.52 515.55 1285.54 542.5 1326.53 572.81C1374.67 608.42 1416.47 651.29 1460.76 691.15C1506.06 731.91 1555.92 773.08 1616.13 790.6C1631.14 794.97 1646.55 797.6 1662.19 798.56" stroke="url(#paint54_linear_156_410)" stroke-opacity="0.15" stroke-miterlimit="10"/>
<path d="M-231.877 243.87C-153.118 243.7 -94.4425 300.95 -49.4053 357.64C0.411089 420.35 40.2991 489.82 88.9541 553.34C126.776 602.71 173.396 655.29 236.687 672.61C266.379 680.74 297.788 678.39 328.159 676.04C364.686 673.21 401.018 668.14 437.134 662.16C605.741 634.28 770.576 588.44 938.34 556.46C976.522 549.18 1014.88 542.59 1053.47 537.67C1086.42 533.47 1120.79 528.94 1154.1 530.3C1207.3 532.48 1257.52 557.96 1300.64 586.45C1352.64 620.81 1399.02 662.41 1447.62 701C1496.69 739.97 1549.83 779.06 1611.72 795.97C1627.04 800.15 1642.71 802.73 1658.59 803.68" stroke="url(#paint55_linear_156_410)" stroke-opacity="0.15" stroke-miterlimit="10"/>
<path d="M-231.877 256.24C-153.93 256.14 -96.8578 313.3 -53.4958 370.12C-5.47806 433.06 32.3442 502.64 78.9333 566.54C115.306 616.43 160.549 670.11 223.336 688.04C253.234 696.58 284.941 694.2 315.6 691.8C351.572 688.98 387.349 683.93 422.9 677.94C586.101 650.47 745.457 605.08 907.785 573.5C945.216 566.22 982.813 559.65 1020.66 554.75C1053.36 550.52 1087.38 546.12 1120.44 547.35C1175.16 549.38 1227.58 573.88 1273.56 600.97C1328.93 633.59 1379.55 673.13 1432.01 709.85C1485.72 747.44 1543.15 785.09 1608.08 801.17C1623.35 804.95 1638.9 807.31 1654.64 808.18" stroke="url(#paint56_linear_156_410)" stroke-opacity="0.15" stroke-miterlimit="10"/>
<path d="M-231.877 268.68C-154.064 268.68 -98.42 326.87 -56.6922 384.37C-10.3908 448.18 25.4581 518.45 70.5261 583.03C105.275 632.83 149.028 686.6 210.951 704.3C239.832 712.55 270.449 710.32 300.07 708.05C335.395 705.34 370.514 700.36 405.407 694.41C564.281 667.33 719.126 621.87 877.095 590.58C913.181 583.43 949.451 577.01 985.958 572.22C1018.34 567.97 1051.92 563.75 1084.68 564.87C1140.85 566.8 1195.32 589.95 1244.08 615.4C1303.58 646.45 1359.02 684.21 1416.04 719.23C1473.99 754.81 1535.16 790.32 1602.57 805.6C1618.3 809.16 1634.26 811.4 1650.39 812.21" stroke="url(#paint57_linear_156_410)" stroke-opacity="0.15" stroke-miterlimit="10"/>
<path d="M-231.877 281.2C-154.341 281.33 -100.332 340.47 -60.3717 398.52C-16.5061 462.27 16.9481 532.1 59.4775 596.65C92.7981 647.24 135.235 702.53 197.148 720.64C226.152 729.12 257.181 726.69 286.966 724.32C321.129 721.6 355.087 716.7 388.808 710.83C541.803 684.19 690.677 639.21 842.747 608.36C877.948 601.22 913.324 594.82 948.958 590.07C980.973 585.8 1014.02 581.81 1046.4 582.72C1105.08 584.36 1162.52 606.61 1214.81 630.82C1277.66 659.91 1337.23 695.16 1398.09 727.91C1460.71 761.6 1526.14 795.22 1596.73 809.67C1612.94 812.99 1629.36 815.08 1645.91 815.79" stroke="url(#paint58_linear_156_410)" stroke-opacity="0.15" stroke-miterlimit="10"/>
<path d="M-231.877 293.77C-155.143 294.04 -103.035 353.5 -65.0481 411.68C-22.5906 476.71 8.89026 547.8 50.0425 613.57C81.3897 663.68 121.833 718.81 182.225 737.07C210.509 745.62 240.736 743.38 269.843 741.1C303.256 738.49 336.453 733.68 369.414 727.85C517.64 701.63 661.539 656.6 808.789 626.07C843.045 618.97 877.496 612.64 912.194 607.99C943.325 603.82 975.289 600.18 1006.77 600.9C1066.9 602.29 1126.18 622.69 1181.1 644.94C1249.01 672.44 1314.1 705.98 1380.28 737.08C1447.34 768.59 1516.8 799.97 1590.46 813.43C1607.22 816.49 1624.15 818.42 1641.2 819.01" stroke="url(#paint59_linear_156_410)" stroke-opacity="0.15" stroke-miterlimit="10"/>
<path d="M-231.877 306.38C-155.955 306.82 -105.799 366.65 -69.8581 424.9C-29.4458 490.38 -0.256938 561.68 38.6342 627.97C68.2547 678.45 106.992 734.91 166.86 753.65C194.805 762.4 224.744 760.2 253.573 757.94C286.236 755.37 318.693 750.6 350.894 744.77C493.169 719.02 630.953 674.4 772.211 644.3C805.511 637.21 839.016 630.91 872.779 626.31C903.468 622.13 934.815 618.77 965.854 619.3C1028.57 620.38 1090.7 639.5 1149.08 660.26C1221.25 685.92 1291.14 717.19 1361.92 746.16C1433.42 775.43 1506.99 804.58 1583.92 816.97C1601.27 819.77 1618.76 821.51 1636.35 821.96" stroke="url(#paint60_linear_156_410)" stroke-opacity="0.15" stroke-miterlimit="10"/>
<path d="M-231.877 319.03C-156.13 319.64 -107.865 380.86 -73.9178 439.61C-35.7769 505.62 -8.91085 577.08 27.8219 643.79C55.5719 694.2 92.3356 751.21 151.186 770.36C178.751 779.33 208.413 777.17 236.923 774.92C268.805 772.4 300.471 767.67 331.88 761.84C468.122 736.56 599.719 692.33 734.912 662.68C796.62 649.15 860.486 637.15 924.013 637.85C988.948 638.57 1053.51 656.09 1114.94 675.11C1191.44 698.8 1266.09 727.72 1341.45 754.55C1417.95 781.79 1496.22 808.99 1577.18 820.35C1595.14 822.87 1613.23 824.42 1631.38 824.72" stroke="url(#paint61_linear_156_410)" stroke-opacity="0.15" stroke-miterlimit="10"/>
<path d="M-231.877 331.69C-197.272 332.06 -166.336 345.49 -141.093 368.24C-114.474 392.23 -94.9975 423.06 -78.255 454.09C-42.4061 520.53 -17.8731 592.05 16.5678 659.14C42.5603 709.76 77.4945 767.76 135.759 787.28C162.903 796.37 192.287 794.19 220.438 791.94C251.014 789.5 281.375 784.9 311.478 779.19C442.438 754.36 568.495 710.17 698.354 680.9C758.13 667.42 819.591 656.23 881.176 656.52C948.834 656.83 1016.22 672.81 1081.06 690.24C1162.46 712.12 1242.35 738.92 1322.82 763.72C1403.66 788.63 1485.97 813.53 1570.39 823.69C1588.96 825.92 1607.63 827.26 1626.36 827.4" stroke="url(#paint62_linear_156_410)" stroke-opacity="0.15" stroke-miterlimit="10"/>
<path d="M-231.877 344.36C-198.053 344.81 -167.929 358.06 -143.611 380.7C-117.547 404.96 -99.0058 436.17 -83.2397 467.42C-49.2408 534.79 -26.9381 607.03 5.57055 675.04C29.8467 725.84 63.0439 784.84 120.928 804.45C147.342 813.39 176.079 811.22 203.479 809.02C233.244 806.62 262.813 802.07 292.084 796.37C417.442 771.94 537.641 727.91 661.879 699.1C719.784 685.67 778.953 675.25 838.656 675.21C909.285 675.17 979.688 689.68 1048.07 705.6C1133.94 725.58 1218.63 750.07 1303.78 772.71C1388.97 795.36 1475.42 818.04 1563.48 827C1582.7 828.95 1601.98 830.08 1621.3 830.05" stroke="url(#paint63_linear_156_410)" stroke-opacity="0.15" stroke-miterlimit="10"/>
<path d="M-231.877 357.02C-198.279 357.55 -168.638 371.06 -145.061 394.11C-120.096 418.52 -102.757 449.66 -88.1525 480.71C-56.0242 549.02 -35.9414 621.98 -5.3753 690.92C17.0611 741.53 48.2027 801.16 105.101 821.21C131.114 830.38 159.562 828.24 186.634 826.05C215.597 823.7 244.344 819.19 272.803 813.49C392.159 789.57 506.108 745.9 624.282 717.54C680.738 703.99 738.129 694.17 796.415 693.83C869.448 693.41 942.287 706.26 1013.58 720.49C1103.85 738.5 1193.17 760.68 1282.85 781.18C1372.99 801.78 1464.18 822.52 1556.61 830.33C1576.47 832.01 1596.36 832.92 1616.29 832.72" stroke="url(#paint64_linear_156_410)" stroke-opacity="0.15" stroke-miterlimit="10"/>
<path d="M-231.877 369.65C-198.556 370.26 -169.388 384 -146.582 407.4C-122.326 432.28 -106.026 463.83 -92.4281 495.14C-62.5711 563.88 -44.7392 636.86 -16.4136 706.16C4.15222 756.48 33.1253 816.93 88.8822 837.63C114.464 847.13 142.45 845.19 169.213 843.04C197.333 840.78 225.237 836.38 252.844 830.7C366.989 807.24 475.399 763.58 588.3 735.61C642.844 722.1 697.954 713.02 754.317 712.34C830.157 711.42 905.863 722.83 980.356 735.51C1075.57 751.71 1170.03 771.79 1264.79 790.29C1358.95 808.67 1453.99 827.21 1549.93 833.79C1570.37 835.19 1590.86 835.89 1611.36 835.53" stroke="url(#paint65_linear_156_410)" stroke-opacity="0.15" stroke-miterlimit="10"/>
<path d="M-231.877 382.26C-198.762 382.94 -170.015 396.96 -147.949 420.76C-124.752 445.78 -109.602 477.23 -97.0839 508.32C-69.0358 578 -53.3725 651.67 -26.9586 721.89C-7.99611 772.3 19.2092 833.78 74.7194 854.57C99.6225 863.9 127.013 861.97 153.098 859.86C180.447 857.65 207.58 853.29 234.385 847.61C342.764 824.65 445.11 781.33 552.184 753.8C605.33 740.14 658.775 731.63 713.771 730.7C791.892 729.38 869.932 739.26 947.066 750.35C1047.3 764.76 1146.94 782.78 1246.82 799.33C1344.95 815.59 1443.83 832.05 1543.36 837.46C1564.41 838.6 1585.48 839.1 1606.56 838.58" stroke="url(#paint66_linear_156_410)" stroke-opacity="0.15" stroke-miterlimit="10"/>
<path d="M-231.877 394.81C-198.978 395.56 -170.683 409.78 -149.336 433.93C-126.818 459.41 -112.644 491.27 -101.072 522.6C-75.1922 592.66 -61.6461 666.34 -37.3597 736.89C-20.0006 787.32 5.34445 849.92 60.4436 871.08C84.987 880.51 112.203 878.53 137.969 876.42C164.146 874.27 190.118 870.05 215.751 864.48C319.207 841.98 416.199 798.62 518.278 771.48C543.581 764.75 569.183 759.02 595.094 755.02C621.877 750.88 648.507 749.46 675.569 748.76C755.787 746.68 836.262 755.63 915.74 765.22C1019.99 777.79 1123.78 793.63 1227.76 808.15C1330.99 822.56 1434.87 837.3 1539.18 841.45C1560.08 842.28 1581.01 842.55 1601.93 841.91" stroke="url(#paint67_linear_156_410)" stroke-opacity="0.15" stroke-miterlimit="10"/>
<path d="M-231.877 407.31C-199.132 408.11 -171.269 422.52 -150.611 447.03C-129.089 472.55 -115.964 504.19 -105.378 535.23C-81.2047 606.1 -69.6833 680.35 -47.2983 751.72C-31.5939 801.8 -8.31472 865.17 45.7875 886.97C70.3308 896.86 97.6903 894.9 123.58 892.75C148.658 890.66 173.54 886.57 198.063 881.1C296.432 859.15 387.904 815.95 484.762 789.17C509.48 782.34 534.527 776.58 559.903 772.6C585.813 768.54 611.61 767.15 637.808 766.54C720.667 764.6 803.445 771.72 885.79 779.95C994.714 790.84 1103.29 804.73 1212.01 817.38C1318.67 829.8 1425.89 842.56 1533.35 845.64C1554.73 846.25 1576.11 846.35 1597.49 845.6" stroke="url(#paint68_linear_156_410)" stroke-opacity="0.15" stroke-miterlimit="10"/>
<path d="M-231.877 419.73C-199.738 420.56 -172.492 434.73 -152.533 459.06C-131.052 485.24 -118.626 517.82 -108.77 549.55C-86.6108 620.85 -77.0217 695.16 -56.5072 766.88C-42.1697 817.01 -20.5144 881.38 33.5467 903.18C57.5453 912.86 84.4525 910.89 109.777 908.77C134.238 906.72 158.494 902.68 182.379 897.18C276.02 875.63 362.312 832.46 454.401 806.11C477.906 799.39 501.761 793.78 525.945 789.91C551.033 785.89 575.997 784.55 601.373 783.95C686.607 781.91 771.635 787.49 856.54 794.43C970.099 803.71 1083.4 815.73 1196.82 826.61C1306.83 837.16 1417.27 848.1 1527.86 850.22C1549.68 850.64 1571.51 850.6 1593.32 849.75" stroke="url(#paint69_linear_156_410)" stroke-opacity="0.15" stroke-miterlimit="10"/>
<path d="M-231.877 432.07C-199.831 432.93 -172.872 447.24 -153.478 471.91C-132.563 498.52 -121 531.47 -111.956 563.42C-91.6778 635 -83.8975 709.27 -65.2331 781.22C-52.2317 831.36 -32.2414 896.76 21.6347 918.85C45.0886 928.47 71.523 926.57 96.313 924.52C120.209 922.54 143.899 918.59 167.209 913.1C256.677 892.01 338.231 848.7 426.045 822.71C448.389 816.1 471.102 810.63 494.145 806.86C519.367 802.73 544.414 801.59 569.923 800.85C656.781 798.3 743.648 803.14 830.29 808.85C947.251 816.55 1064.04 826.68 1180.89 835.8C1294.66 844.69 1408.81 853.99 1523 855.27C1545.17 855.52 1567.35 855.36 1589.51 854.45" stroke="url(#paint70_linear_156_410)" stroke-opacity="0.15" stroke-miterlimit="10"/>
<path d="M-231.877 444.31C-199.903 445.18 -173.088 459.6 -154.239 484.61C-134.176 511.23 -123.457 543.85 -115.193 575.49C-96.1795 648.3 -90.1978 723.62 -72.8386 796.76C-61.122 846.11 -42.7967 911.28 9.81528 933.7C33.4336 943.77 60.1867 941.85 85.2747 939.74C108.657 937.78 131.833 933.86 154.598 928.33C239.524 907.7 316.052 864.66 399.22 839.09C421.152 832.35 443.496 826.84 466.179 823.1C490.754 819.05 515.215 817.87 540.066 817.25C628.907 815.03 717.574 818.42 806.292 823.03C926.357 829.28 1046.3 837.64 1166.29 845.15C1283.56 852.49 1401.12 860.26 1518.68 860.82C1541.12 860.93 1563.57 860.68 1586.01 859.74" stroke="url(#paint71_linear_156_410)" stroke-opacity="0.15" stroke-miterlimit="10"/>
<path d="M-231.877 456.44C-200.396 457.28 -174.013 471.3 -155.585 496.05C-135.718 522.72 -125.615 555.63 -117.968 587.32C-100.239 660.81 -95.8917 736.63 -80.0022 810.46C-69.3647 859.92 -52.4475 925.91 0.174715 948.53C23.7211 958.65 50.618 956.63 75.6444 954.51C98.5947 952.56 121.35 948.66 143.663 943.09C224.765 922.83 296.915 879.77 376.208 854.63C397.174 847.98 418.563 842.6 440.3 838.95C464.679 834.85 488.914 833.73 513.591 833.09C604.076 830.71 694.48 833.37 784.904 837.01C908.72 842 1032.46 848.8 1156.23 854.86C1275.7 860.71 1395.38 866.98 1515.04 866.98C1537.67 866.98 1560.31 866.67 1582.93 865.76" stroke="url(#paint72_linear_156_410)" stroke-opacity="0.15" stroke-miterlimit="10"/>
<path d="M-231.877 468.45C-200.376 469.26 -174.064 483.26 -155.945 508.28C-136.448 535.21 -126.961 568.38 -119.921 600.19C-103.641 673.73 -100.691 749.33 -86.3231 823.19C-80.475 853.29 -72.9517 883.91 -58.717 911.43C-47.6478 932.84 -31.6145 952.61 -8.67445 962.65C14.8514 972.95 41.8306 970.93 66.8981 968.82C89.5195 966.91 111.956 963.09 133.919 957.49C211.856 937.63 280.203 894.43 356.238 869.59C376.639 862.92 397.503 857.61 418.706 854.02C443.034 849.9 467.269 848.78 491.894 848.2C582.945 846.07 673.904 847.91 764.934 850.65C891.926 854.48 1018.86 859.85 1145.82 864.6C1267.87 869.16 1390.08 874.13 1512.25 873.77C1534.95 873.7 1557.64 873.38 1580.31 872.52" stroke="url(#paint73_linear_156_410)" stroke-opacity="0.15" stroke-miterlimit="10"/>
<path d="M-231.877 480.32C-200.314 481.07 -173.941 495 -156.027 520.3C-136.797 547.45 -127.866 580.86 -121.35 612.78C-106.231 686.81 -104.597 762.72 -91.3181 837.03C-85.9222 867.19 -78.8614 897.93 -64.8836 925.55C-54.02 947.01 -38.0586 966.76 -15.0672 976.63C8.29416 986.66 35.0883 984.6 59.9092 982.53C82.325 980.66 104.556 976.9 126.293 971.28C201.547 951.82 266.523 908.41 339.742 883.86C359.702 877.17 380.154 871.92 400.946 868.38C425.356 864.23 449.663 863.26 474.361 862.6C566.449 860.16 658.621 862.07 750.699 864.11C880.641 866.98 1010.55 871.08 1140.47 874.66C1264.43 878.08 1388.51 881.89 1512.54 881.28C1534.41 881.17 1556.29 880.87 1578.15 880.15" stroke="url(#paint74_linear_156_410)" stroke-opacity="0.15" stroke-miterlimit="10"/>
<path d="M-231.877 492.04C-200.139 492.71 -173.561 506.57 -155.739 532.2C-136.684 559.6 -128.215 593.28 -122.131 625.39C-108.112 699.44 -107.536 775.18 -95.3367 849.48C-87.1967 899.06 -73.3422 967.25 -20.2061 989.86C3.08332 999.77 29.8261 997.68 54.5442 995.66C76.9292 993.83 99.1497 990.15 120.846 984.48C194.034 965.36 256.225 921.63 327.275 897.34C370.565 882.54 414.883 876.99 460.588 876.24C552.451 874.75 644.293 875.76 736.146 877.19C868.637 879.25 1001.1 882.23 1133.58 884.84C1259.48 887.31 1385.44 890.11 1511.38 889.6C1533.12 889.51 1554.86 889.28 1576.59 888.74" stroke="url(#paint75_linear_156_410)" stroke-opacity="0.15" stroke-miterlimit="10"/>
<path d="M-231.877 503.6C-200.006 504.16 -173.139 517.79 -155.277 543.64C-136.314 571.09 -128.154 604.89 -122.419 637.02C-109.14 711.34 -109.52 787.22 -98.0911 861.78C-90.4753 911.45 -77.1758 979.92 -23.7725 1002.38C-0.185009 1012.3 26.9792 1010.08 51.9645 1008.04C74.3597 1006.21 96.6111 1002.57 118.307 996.85C189.718 978.04 249.493 934.13 318.662 910.1C361.809 895.11 406.517 889.45 452.171 889.01C544.003 888.12 635.824 888.98 727.656 889.99C988.876 892.85 1250.13 899.07 1511.37 898.78C1532.78 898.76 1554.19 898.65 1575.59 898.34" stroke="url(#paint76_linear_156_410)" stroke-opacity="0.15" stroke-miterlimit="10"/>
<path d="M-231.877 514.98C-199.749 515.4 -172.43 528.78 -154.393 554.91C-135.399 582.41 -127.455 616.4 -121.956 648.62C-109.222 723.23 -110.424 799.34 -99.4375 874.16C-92.1711 923.69 -79.1697 991.76 -25.8486 1014.03C-1.50055 1024.2 26.6811 1021.74 52.4475 1019.6C74.9867 1017.73 97.3717 1014.06 119.212 1008.26C188.895 989.75 246.543 945.99 313.914 922.2C357.512 906.81 403.403 900.84 449.642 900.82C541.351 900.77 633.07 901.67 724.768 902.42C987.273 904.55 1249.78 907.74 1512.29 908.86C1533.27 908.95 1554.26 909.01 1575.23 909.01" stroke="url(#paint77_linear_156_410)" stroke-opacity="0.15" stroke-miterlimit="10"/>
</g>
<defs>
<linearGradient id="paint0_linear_156_410" x1="661.915" y1="-174.505" x2="661.915" y2="13.974" gradientUnits="userSpaceOnUse">
<stop stop-color="white"/>
<stop offset="1" stop-color="white" stop-opacity="0.2"/>
</linearGradient>
<linearGradient id="paint1_linear_156_410" x1="672.634" y1="-168.248" x2="672.634" y2="30.1532" gradientUnits="userSpaceOnUse">
<stop stop-color="white"/>
<stop offset="1" stop-color="white" stop-opacity="0.2"/>
</linearGradient>
<linearGradient id="paint2_linear_156_410" x1="683.616" y1="-162.171" x2="683.616" y2="50.216" gradientUnits="userSpaceOnUse">
<stop stop-color="white"/>
<stop offset="1" stop-color="white" stop-opacity="0.2"/>
</linearGradient>
<linearGradient id="paint3_linear_156_410" x1="694.773" y1="-156.21" x2="694.773" y2="73.3507" gradientUnits="userSpaceOnUse">
<stop stop-color="white"/>
<stop offset="1" stop-color="white" stop-opacity="0.2"/>
</linearGradient>
<linearGradient id="paint4_linear_156_410" x1="706.001" y1="-150.3" x2="706.001" y2="96.59" gradientUnits="userSpaceOnUse">
<stop stop-color="white"/>
<stop offset="1" stop-color="white" stop-opacity="0.2"/>
</linearGradient>
<linearGradient id="paint5_linear_156_410" x1="717.188" y1="-144.38" x2="717.188" y2="119.8" gradientUnits="userSpaceOnUse">
<stop stop-color="white"/>
<stop offset="1" stop-color="white" stop-opacity="0.2"/>
</linearGradient>
<linearGradient id="paint6_linear_156_410" x1="728.237" y1="-138.38" x2="728.237" y2="142.85" gradientUnits="userSpaceOnUse">
<stop stop-color="white"/>
<stop offset="1" stop-color="white" stop-opacity="0.2"/>
</linearGradient>
<linearGradient id="paint7_linear_156_410" x1="739.044" y1="-132.27" x2="739.044" y2="165.65" gradientUnits="userSpaceOnUse">
<stop stop-color="white"/>
<stop offset="1" stop-color="white" stop-opacity="0.2"/>
</linearGradient>
<linearGradient id="paint8_linear_156_410" x1="749.512" y1="-126" x2="749.512" y2="188.09" gradientUnits="userSpaceOnUse">
<stop stop-color="white"/>
<stop offset="1" stop-color="white" stop-opacity="0.2"/>
</linearGradient>
<linearGradient id="paint9_linear_156_410" x1="759.497" y1="-119.5" x2="759.497" y2="210.03" gradientUnits="userSpaceOnUse">
<stop stop-color="white"/>
<stop offset="1" stop-color="white" stop-opacity="0.2"/>
</linearGradient>
<linearGradient id="paint10_linear_156_410" x1="768.953" y1="-112.74" x2="768.953" y2="231.36" gradientUnits="userSpaceOnUse">
<stop stop-color="white"/>
<stop offset="1" stop-color="white" stop-opacity="0.2"/>
</linearGradient>
<linearGradient id="paint11_linear_156_410" x1="777.745" y1="-105.66" x2="777.745" y2="252.01" gradientUnits="userSpaceOnUse">
<stop stop-color="white"/>
<stop offset="1" stop-color="white" stop-opacity="0.2"/>
</linearGradient>
<linearGradient id="paint12_linear_156_410" x1="785.752" y1="-98.21" x2="785.752" y2="271.83" gradientUnits="userSpaceOnUse">
<stop stop-color="white"/>
<stop offset="1" stop-color="white" stop-opacity="0.2"/>
</linearGradient>
<linearGradient id="paint13_linear_156_410" x1="792.9" y1="-90.35" x2="792.9" y2="290.74" gradientUnits="userSpaceOnUse">
<stop stop-color="white"/>
<stop offset="1" stop-color="white" stop-opacity="0.2"/>
</linearGradient>
<linearGradient id="paint14_linear_156_410" x1="799.077" y1="-82.02" x2="799.077" y2="308.6" gradientUnits="userSpaceOnUse">
<stop stop-color="white"/>
<stop offset="1" stop-color="white" stop-opacity="0.2"/>
</linearGradient>
<linearGradient id="paint15_linear_156_410" x1="804.159" y1="-73.17" x2="804.159" y2="325.3" gradientUnits="userSpaceOnUse">
<stop stop-color="white"/>
<stop offset="1" stop-color="white" stop-opacity="0.2"/>
</linearGradient>
<linearGradient id="paint16_linear_156_410" x1="808.065" y1="-63.75" x2="808.065" y2="340.76" gradientUnits="userSpaceOnUse">
<stop stop-color="white"/>
<stop offset="1" stop-color="white" stop-opacity="0.2"/>
</linearGradient>
<linearGradient id="paint17_linear_156_410" x1="810.68" y1="-53.72" x2="810.68" y2="354.85" gradientUnits="userSpaceOnUse">
<stop stop-color="white"/>
<stop offset="1" stop-color="white" stop-opacity="0.2"/>
</linearGradient>
<linearGradient id="paint18_linear_156_410" x1="811.914" y1="-43.01" x2="811.914" y2="367.43" gradientUnits="userSpaceOnUse">
<stop stop-color="white"/>
<stop offset="1" stop-color="white" stop-opacity="0.2"/>
</linearGradient>
<linearGradient id="paint19_linear_156_410" x1="811.847" y1="-31.97" x2="811.847" y2="378.85" gradientUnits="userSpaceOnUse">
<stop stop-color="white"/>
<stop offset="1" stop-color="white" stop-opacity="0.2"/>
</linearGradient>
<linearGradient id="paint20_linear_156_410" x1="811.127" y1="-21.74" x2="811.127" y2="390.52" gradientUnits="userSpaceOnUse">
<stop stop-color="white"/>
<stop offset="1" stop-color="white" stop-opacity="0.2"/>
</linearGradient>
<linearGradient id="paint21_linear_156_410" x1="809.858" y1="-12.34" x2="809.858" y2="402.44" gradientUnits="userSpaceOnUse">
<stop stop-color="white"/>
<stop offset="1" stop-color="white" stop-opacity="0.2"/>
</linearGradient>
<linearGradient id="paint22_linear_156_410" x1="808.08" y1="-3.71008" x2="808.08" y2="414.6" gradientUnits="userSpaceOnUse">
<stop stop-color="white"/>
<stop offset="1" stop-color="white" stop-opacity="0.2"/>
</linearGradient>
<linearGradient id="paint23_linear_156_410" x1="805.809" y1="4.20972" x2="805.809" y2="427.01" gradientUnits="userSpaceOnUse">
<stop stop-color="white"/>
<stop offset="1" stop-color="white" stop-opacity="0.2"/>
</linearGradient>
<linearGradient id="paint24_linear_156_410" x1="803.116" y1="11.4995" x2="803.116" y2="439.64" gradientUnits="userSpaceOnUse">
<stop stop-color="white"/>
<stop offset="1" stop-color="white" stop-opacity="0.2"/>
</linearGradient>
<linearGradient id="paint25_linear_156_410" x1="800.012" y1="18.2095" x2="800.012" y2="452.45" gradientUnits="userSpaceOnUse">
<stop stop-color="white"/>
<stop offset="1" stop-color="white" stop-opacity="0.2"/>
</linearGradient>
<linearGradient id="paint26_linear_156_410" x1="796.59" y1="24.3997" x2="796.59" y2="465.4" gradientUnits="userSpaceOnUse">
<stop stop-color="white"/>
<stop offset="1" stop-color="white" stop-opacity="0.2"/>
</linearGradient>
<linearGradient id="paint27_linear_156_410" x1="792.848" y1="30.1499" x2="792.848" y2="478.56" gradientUnits="userSpaceOnUse">
<stop stop-color="white"/>
<stop offset="1" stop-color="white" stop-opacity="0.2"/>
</linearGradient>
<linearGradient id="paint28_linear_156_410" x1="788.866" y1="35.51" x2="788.866" y2="491.82" gradientUnits="userSpaceOnUse">
<stop stop-color="white"/>
<stop offset="1" stop-color="white" stop-opacity="0.2"/>
</linearGradient>
<linearGradient id="paint29_linear_156_410" x1="784.647" y1="40.55" x2="784.647" y2="505.17" gradientUnits="userSpaceOnUse">
<stop stop-color="white"/>
<stop offset="1" stop-color="white" stop-opacity="0.2"/>
</linearGradient>
<linearGradient id="paint30_linear_156_410" x1="780.273" y1="45.34" x2="780.273" y2="518.63" gradientUnits="userSpaceOnUse">
<stop stop-color="white"/>
<stop offset="1" stop-color="white" stop-opacity="0.2"/>
</linearGradient>
<linearGradient id="paint31_linear_156_410" x1="775.762" y1="49.9301" x2="775.762" y2="532.13" gradientUnits="userSpaceOnUse">
<stop stop-color="white"/>
<stop offset="1" stop-color="white" stop-opacity="0.2"/>
</linearGradient>
<linearGradient id="paint32_linear_156_410" x1="771.157" y1="54.4" x2="771.157" y2="545.7" gradientUnits="userSpaceOnUse">
<stop stop-color="white"/>
<stop offset="1" stop-color="white" stop-opacity="0.2"/>
</linearGradient>
<linearGradient id="paint33_linear_156_410" x1="766.506" y1="58.8" x2="766.506" y2="559.28" gradientUnits="userSpaceOnUse">
<stop stop-color="white"/>
<stop offset="1" stop-color="white" stop-opacity="0.2"/>
</linearGradient>
<linearGradient id="paint34_linear_156_410" x1="761.876" y1="63.2" x2="761.876" y2="572.87" gradientUnits="userSpaceOnUse">
<stop stop-color="white"/>
<stop offset="1" stop-color="white" stop-opacity="0.2"/>
</linearGradient>
<linearGradient id="paint35_linear_156_410" x1="757.282" y1="67.66" x2="757.282" y2="586.41" gradientUnits="userSpaceOnUse">
<stop stop-color="white"/>
<stop offset="1" stop-color="white" stop-opacity="0.2"/>
</linearGradient>
<linearGradient id="paint36_linear_156_410" x1="752.765" y1="72.25" x2="752.765" y2="599.93" gradientUnits="userSpaceOnUse">
<stop stop-color="white"/>
<stop offset="1" stop-color="white" stop-opacity="0.2"/>
</linearGradient>
<linearGradient id="paint37_linear_156_410" x1="748.376" y1="77.04" x2="748.376" y2="613.38" gradientUnits="userSpaceOnUse">
<stop stop-color="white"/>
<stop offset="1" stop-color="white" stop-opacity="0.2"/>
</linearGradient>
<linearGradient id="paint38_linear_156_410" x1="744.173" y1="82.08" x2="744.173" y2="626.74" gradientUnits="userSpaceOnUse">
<stop stop-color="white"/>
<stop offset="1" stop-color="white" stop-opacity="0.2"/>
</linearGradient>
<linearGradient id="paint39_linear_156_410" x1="740.18" y1="87.4399" x2="740.18" y2="640.01" gradientUnits="userSpaceOnUse">
<stop stop-color="white"/>
<stop offset="1" stop-color="white" stop-opacity="0.2"/>
</linearGradient>
<linearGradient id="paint40_linear_156_410" x1="736.439" y1="93.1899" x2="736.439" y2="653.13" gradientUnits="userSpaceOnUse">
<stop stop-color="white"/>
<stop offset="1" stop-color="white" stop-opacity="0.2"/>
</linearGradient>
<linearGradient id="paint41_linear_156_410" x1="733.006" y1="99.39" x2="733.006" y2="666.14" gradientUnits="userSpaceOnUse">
<stop stop-color="white"/>
<stop offset="1" stop-color="white" stop-opacity="0.2"/>
</linearGradient>
<linearGradient id="paint42_linear_156_410" x1="729.928" y1="106.09" x2="729.928" y2="678.95" gradientUnits="userSpaceOnUse">
<stop stop-color="white"/>
<stop offset="1" stop-color="white" stop-opacity="0.2"/>
</linearGradient>
<linearGradient id="paint43_linear_156_410" x1="727.23" y1="113.38" x2="727.23" y2="691.56" gradientUnits="userSpaceOnUse">
<stop stop-color="white"/>
<stop offset="1" stop-color="white" stop-opacity="0.2"/>
</linearGradient>
<linearGradient id="paint44_linear_156_410" x1="724.974" y1="121.3" x2="724.974" y2="703.95" gradientUnits="userSpaceOnUse">
<stop stop-color="white"/>
<stop offset="1" stop-color="white" stop-opacity="0.2"/>
</linearGradient>
<linearGradient id="paint45_linear_156_410" x1="723.16" y1="129.93" x2="723.16" y2="716.14" gradientUnits="userSpaceOnUse">
<stop stop-color="white"/>
<stop offset="1" stop-color="white" stop-opacity="0.2"/>
</linearGradient>
<linearGradient id="paint46_linear_156_410" x1="721.896" y1="139.33" x2="721.896" y2="728.05" gradientUnits="userSpaceOnUse">
<stop stop-color="white"/>
<stop offset="1" stop-color="white" stop-opacity="0.2"/>
</linearGradient>
<linearGradient id="paint47_linear_156_410" x1="721.176" y1="149.57" x2="721.176" y2="739.69" gradientUnits="userSpaceOnUse">
<stop stop-color="white"/>
<stop offset="1" stop-color="white" stop-opacity="0.2"/>
</linearGradient>
<linearGradient id="paint48_linear_156_410" x1="721.032" y1="160.65" x2="721.032" y2="751" gradientUnits="userSpaceOnUse">
<stop stop-color="white"/>
<stop offset="1" stop-color="white" stop-opacity="0.2"/>
</linearGradient>
<linearGradient id="paint49_linear_156_410" x1="720.76" y1="172.09" x2="720.76" y2="761.33" gradientUnits="userSpaceOnUse">
<stop stop-color="white"/>
<stop offset="1" stop-color="white" stop-opacity="0.2"/>
</linearGradient>
<linearGradient id="paint50_linear_156_410" x1="720.164" y1="183.7" x2="720.164" y2="770.6" gradientUnits="userSpaceOnUse">
<stop stop-color="white"/>
<stop offset="1" stop-color="white" stop-opacity="0.2"/>
</linearGradient>
<linearGradient id="paint51_linear_156_410" x1="719.29" y1="195.47" x2="719.29" y2="778.88" gradientUnits="userSpaceOnUse">
<stop stop-color="white"/>
<stop offset="1" stop-color="white" stop-opacity="0.2"/>
</linearGradient>
<linearGradient id="paint52_linear_156_410" x1="718.144" y1="207.38" x2="718.144" y2="786.25" gradientUnits="userSpaceOnUse">
<stop stop-color="white"/>
<stop offset="1" stop-color="white" stop-opacity="0.2"/>
</linearGradient>
<linearGradient id="paint53_linear_156_410" x1="716.762" y1="219.43" x2="716.762" y2="792.77" gradientUnits="userSpaceOnUse">
<stop stop-color="white"/>
<stop offset="1" stop-color="white" stop-opacity="0.2"/>
</linearGradient>
<linearGradient id="paint54_linear_156_410" x1="715.159" y1="231.599" x2="715.159" y2="798.56" gradientUnits="userSpaceOnUse">
<stop stop-color="white"/>
<stop offset="1" stop-color="white" stop-opacity="0.2"/>
</linearGradient>
<linearGradient id="paint55_linear_156_410" x1="713.355" y1="243.87" x2="713.355" y2="803.68" gradientUnits="userSpaceOnUse">
<stop stop-color="white"/>
<stop offset="1" stop-color="white" stop-opacity="0.2"/>
</linearGradient>
<linearGradient id="paint56_linear_156_410" x1="711.382" y1="256.24" x2="711.382" y2="808.18" gradientUnits="userSpaceOnUse">
<stop stop-color="white"/>
<stop offset="1" stop-color="white" stop-opacity="0.2"/>
</linearGradient>
<linearGradient id="paint57_linear_156_410" x1="709.254" y1="268.68" x2="709.254" y2="812.21" gradientUnits="userSpaceOnUse">
<stop stop-color="white"/>
<stop offset="1" stop-color="white" stop-opacity="0.2"/>
</linearGradient>
<linearGradient id="paint58_linear_156_410" x1="707.019" y1="281.2" x2="707.019" y2="815.79" gradientUnits="userSpaceOnUse">
<stop stop-color="white"/>
<stop offset="1" stop-color="white" stop-opacity="0.2"/>
</linearGradient>
<linearGradient id="paint59_linear_156_410" x1="704.66" y1="293.77" x2="704.66" y2="819.01" gradientUnits="userSpaceOnUse">
<stop stop-color="white"/>
<stop offset="1" stop-color="white" stop-opacity="0.2"/>
</linearGradient>
<linearGradient id="paint60_linear_156_410" x1="702.234" y1="306.38" x2="702.234" y2="821.96" gradientUnits="userSpaceOnUse">
<stop stop-color="white"/>
<stop offset="1" stop-color="white" stop-opacity="0.2"/>
</linearGradient>
<linearGradient id="paint61_linear_156_410" x1="699.752" y1="319.03" x2="699.752" y2="824.72" gradientUnits="userSpaceOnUse">
<stop stop-color="white"/>
<stop offset="1" stop-color="white" stop-opacity="0.2"/>
</linearGradient>
<linearGradient id="paint62_linear_156_410" x1="697.239" y1="331.69" x2="697.239" y2="827.4" gradientUnits="userSpaceOnUse">
<stop stop-color="white"/>
<stop offset="1" stop-color="white" stop-opacity="0.2"/>
</linearGradient>
<linearGradient id="paint63_linear_156_410" x1="694.711" y1="344.36" x2="694.711" y2="830.051" gradientUnits="userSpaceOnUse">
<stop stop-color="white"/>
<stop offset="1" stop-color="white" stop-opacity="0.2"/>
</linearGradient>
<linearGradient id="paint64_linear_156_410" x1="692.208" y1="357.02" x2="692.208" y2="832.747" gradientUnits="userSpaceOnUse">
<stop stop-color="white"/>
<stop offset="1" stop-color="white" stop-opacity="0.2"/>
</linearGradient>
<linearGradient id="paint65_linear_156_410" x1="689.742" y1="369.65" x2="689.742" y2="844.806" gradientUnits="userSpaceOnUse">
<stop stop-color="white"/>
<stop offset="1" stop-color="white" stop-opacity="0.2"/>
</linearGradient>
<linearGradient id="paint66_linear_156_410" x1="687.342" y1="382.26" x2="687.342" y2="861.602" gradientUnits="userSpaceOnUse">
<stop stop-color="white"/>
<stop offset="1" stop-color="white" stop-opacity="0.2"/>
</linearGradient>
<linearGradient id="paint67_linear_156_410" x1="685.024" y1="394.81" x2="685.024" y2="878.174" gradientUnits="userSpaceOnUse">
<stop stop-color="white"/>
<stop offset="1" stop-color="white" stop-opacity="0.2"/>
</linearGradient>
<linearGradient id="paint68_linear_156_410" x1="682.804" y1="407.31" x2="682.804" y2="894.495" gradientUnits="userSpaceOnUse">
<stop stop-color="white"/>
<stop offset="1" stop-color="white" stop-opacity="0.2"/>
</linearGradient>
<linearGradient id="paint69_linear_156_410" x1="680.723" y1="419.73" x2="680.723" y2="910.51" gradientUnits="userSpaceOnUse">
<stop stop-color="white"/>
<stop offset="1" stop-color="white" stop-opacity="0.2"/>
</linearGradient>
<linearGradient id="paint70_linear_156_410" x1="678.816" y1="432.07" x2="678.816" y2="926.182" gradientUnits="userSpaceOnUse">
<stop stop-color="white"/>
<stop offset="1" stop-color="white" stop-opacity="0.2"/>
</linearGradient>
<linearGradient id="paint71_linear_156_410" x1="677.064" y1="444.31" x2="677.064" y2="941.426" gradientUnits="userSpaceOnUse">
<stop stop-color="white"/>
<stop offset="1" stop-color="white" stop-opacity="0.2"/>
</linearGradient>
<linearGradient id="paint72_linear_156_410" x1="675.527" y1="456.44" x2="675.527" y2="956.237" gradientUnits="userSpaceOnUse">
<stop stop-color="white"/>
<stop offset="1" stop-color="white" stop-opacity="0.2"/>
</linearGradient>
<linearGradient id="paint73_linear_156_410" x1="674.217" y1="468.45" x2="674.217" y2="970.527" gradientUnits="userSpaceOnUse">
<stop stop-color="white"/>
<stop offset="1" stop-color="white" stop-opacity="0.2"/>
</linearGradient>
<linearGradient id="paint74_linear_156_410" x1="673.138" y1="480.32" x2="673.138" y2="984.239" gradientUnits="userSpaceOnUse">
<stop stop-color="white"/>
<stop offset="1" stop-color="white" stop-opacity="0.2"/>
</linearGradient>
<linearGradient id="paint75_linear_156_410" x1="672.357" y1="492.04" x2="672.357" y2="997.348" gradientUnits="userSpaceOnUse">
<stop stop-color="white"/>
<stop offset="1" stop-color="white" stop-opacity="0.2"/>
</linearGradient>
<linearGradient id="paint76_linear_156_410" x1="671.858" y1="503.6" x2="671.858" y2="1009.79" gradientUnits="userSpaceOnUse">
<stop stop-color="white"/>
<stop offset="1" stop-color="white" stop-opacity="0.2"/>
</linearGradient>
<linearGradient id="paint77_linear_156_410" x1="671.679" y1="514.98" x2="671.679" y2="1021.51" gradientUnits="userSpaceOnUse">
<stop stop-color="white"/>
<stop offset="1" stop-color="white" stop-opacity="0.2"/>
</linearGradient>
<clipPath id="clip0_156_410">
<rect width="1480" height="720" fill="white" transform="translate(0 -3)"/>
</clipPath>
</defs>
</svg>
