<svg width="200" height="58" viewBox="0 0 200 58" fill="none" xmlns="http://www.w3.org/2000/svg">
<g clip-path="url(#clip0_177_486)">
<path d="M93.4252 11.3262H98.2583L105.587 25.3224L112.853 11.3262H117.686V33.0495H113.8V17.4712L106.914 30.8147H104.199L97.2813 17.4712V33.0495H93.4273V11.3262H93.4252Z" fill="white"/>
<path d="M139.479 33.0495L137.521 28.4559H126.718L124.76 33.0495H120.37L130.067 11.3262H134.457L144.028 33.0495H139.479ZM128.233 24.8872H136.003L132.149 15.7632L128.233 24.8872Z" fill="white"/>
<path d="M162.127 11.3262H166.233V33.0495H162.222L150.85 18.0914V33.0495H146.713V11.3262H150.724L162.127 26.3147V11.3262Z" fill="white"/>
<path d="M171.666 11.3262H175.899V33.0495H171.666V11.3262Z" fill="white"/>
<path d="M195.167 33.0495L191.344 26.6258C191.174 26.6462 190.911 26.6563 190.553 26.6563H185.563V33.0495H181.33V11.3262H190.553C193.416 11.3262 195.629 11.9769 197.187 13.2803C198.746 14.5838 199.524 16.4261 199.524 18.8032C199.524 20.4991 199.149 21.9489 198.402 23.1486C197.655 24.3484 196.564 25.2492 195.134 25.849L199.998 33.0495H195.165H195.167ZM185.565 22.9941H190.555C192.155 22.9941 193.377 22.6525 194.219 21.9692C195.061 21.286 195.482 20.2733 195.482 18.9272C195.482 17.5811 195.059 16.6111 194.219 15.9482C193.377 15.2873 192.155 14.9559 190.555 14.9559H185.565V22.9941Z" fill="white"/>
<path d="M99.2373 46.6186L98.4673 44.9247H94.87L94.1103 46.6186H93.4252L96.3457 40.2539H97.0143L99.9348 46.6186H99.2393H99.2373ZM95.1204 44.3594H98.2169L96.6604 40.9168L95.1225 44.3594H95.1204Z" fill="white"/>
<path d="M113.809 43.2311H116.173V45.8359C115.858 46.0962 115.487 46.3016 115.065 46.45C114.643 46.5985 114.214 46.6737 113.782 46.6737C113.169 46.6737 112.606 46.5273 112.091 46.2365C111.575 45.9457 111.166 45.5512 110.863 45.0531C110.561 44.5549 110.408 44.0119 110.408 43.4222C110.408 42.8325 110.559 42.2937 110.863 41.8016C111.166 41.3095 111.58 40.9191 112.101 40.6323C112.623 40.3436 113.194 40.1992 113.811 40.1992C114.25 40.1992 114.672 40.2745 115.076 40.427C115.481 40.5795 115.841 40.791 116.156 41.0634L115.785 41.5088C115.521 41.2668 115.216 41.0797 114.877 40.9496C114.537 40.8194 114.181 40.7543 113.811 40.7543C113.31 40.7543 112.85 40.8743 112.43 41.1143C112.01 41.3542 111.677 41.6775 111.428 42.0842C111.182 42.4909 111.058 42.9383 111.058 43.4222C111.058 43.9062 111.182 44.3658 111.428 44.7745C111.675 45.1852 112.01 45.5085 112.434 45.7485C112.857 45.9884 113.32 46.1084 113.821 46.1084C114.13 46.1084 114.438 46.0576 114.744 45.9579C115.051 45.8583 115.332 45.716 115.593 45.535V43.8147H113.813V43.2311H113.809Z" fill="white"/>
<path d="M128.231 40.252H132.57V40.8173H128.871V43.0947H132.18V43.66H128.871V46.0554H132.69V46.6207H128.231V40.256V40.252Z" fill="white"/>
<path d="M149.153 40.252H149.784V46.6166H149.107L145.094 41.226V46.6166H144.454V40.252H145.131L149.155 45.6426V40.252H149.153Z" fill="white"/>
<path d="M165.838 40.9638C165.498 40.8235 165.146 40.7543 164.782 40.7543C164.281 40.7543 163.822 40.8723 163.406 41.1102C162.988 41.3461 162.658 41.6694 162.414 42.0802C162.17 42.4889 162.048 42.9383 162.048 43.4243C162.048 43.9103 162.17 44.3556 162.414 44.7623C162.658 45.169 162.99 45.4923 163.406 45.7322C163.824 45.9722 164.281 46.0921 164.782 46.0921C165.14 46.0921 165.49 46.023 165.829 45.8868C166.169 45.7505 166.473 45.5614 166.738 45.3174L167.127 45.7282C166.806 46.0189 166.438 46.2508 166.024 46.4195C165.61 46.5903 165.186 46.6737 164.755 46.6737C164.143 46.6737 163.582 46.5273 163.068 46.2365C162.555 45.9457 162.149 45.5512 161.849 45.0531C161.549 44.5549 161.4 44.0119 161.4 43.4222C161.4 42.8325 161.551 42.2937 161.855 41.8016C162.158 41.3095 162.567 40.9191 163.083 40.6323C163.598 40.3436 164.163 40.1992 164.774 40.1992C165.213 40.1992 165.635 40.2806 166.043 40.4412C166.45 40.6018 166.808 40.8255 167.117 41.1102L166.736 41.5474C166.477 41.2993 166.177 41.1041 165.838 40.9638Z" fill="white"/>
<path d="M183.413 40.252L180.918 44.3493V46.6166H180.279V44.3493L177.747 40.252H178.416L180.604 43.6763L182.746 40.252H183.413Z" fill="white"/>
<path d="M45.4014 0.752441L37.5692 5.39683L11.1004 58.0001H72.5077C72.5077 58.0001 73.1431 53.4797 73.7661 48.9472L45.4014 0.752441Z" fill="white"/>
<path d="M41.7109 48.3147L42.721 36.8135L43.6648 26.0586L25.0634 58H48.4606L56.1168 45.053L56.8144 43.8736L53.1198 44.9595L41.7109 48.3147Z" fill="url(#paint0_linear_177_486)"/>
<path d="M56.9116 0H41.3259C40.1213 0.0284683 37.6499 0.248081 35.0192 1.72233C32.2042 3.30028 30.7202 5.46794 30.1096 6.49483C20.0731 23.6632 10.0365 40.8316 0 58H12.6445L41.6902 8.86786C41.8475 8.60148 42.0048 8.33713 42.1621 8.07075C42.4395 7.60306 42.9466 7.31227 43.4972 7.30617C43.8366 7.30211 44.174 7.29804 44.5134 7.29397H49.154L51.9089 11.8977L55.5042 17.9045L54.1091 33.745L63.355 31.2561L70.057 42.7024L60.6166 57.998H77.9285L84.4215 47.0946L56.9116 0Z" fill="url(#paint1_linear_177_486)"/>
</g>
<defs>
<linearGradient id="paint0_linear_177_486" x1="18.8395" y1="41.8015" x2="73.0599" y2="42.6295" gradientUnits="userSpaceOnUse">
<stop offset="0.01" stop-color="#42C822"/>
<stop offset="0.12" stop-color="#36A821"/>
<stop offset="0.29" stop-color="#267E20"/>
<stop offset="0.45" stop-color="#1A5E1F"/>
<stop offset="0.6" stop-color="#12461E"/>
<stop offset="0.75" stop-color="#0C381E"/>
<stop offset="0.87" stop-color="#0B341E"/>
</linearGradient>
<linearGradient id="paint1_linear_177_486" x1="-16.8379" y1="28.332" x2="128.031" y2="30.5442" gradientUnits="userSpaceOnUse">
<stop offset="0.01" stop-color="#42C822"/>
<stop offset="0.12" stop-color="#36A821"/>
<stop offset="0.29" stop-color="#267E20"/>
<stop offset="0.45" stop-color="#1A5E1F"/>
<stop offset="0.6" stop-color="#12461E"/>
<stop offset="0.75" stop-color="#0C381E"/>
<stop offset="0.87" stop-color="#0B341E"/>
</linearGradient>
<clipPath id="clip0_177_486">
<rect width="200" height="58" fill="white"/>
</clipPath>
</defs>
</svg>
